Coordinates
version=1
nRows=17
nColumns=40
inDegrees=yes

Units are S.I. units (second, meters, Newtons, ...)
Angles are in degrees.

endheader
time	pelvis_tilt	pelvis_list	pelvis_rotation	pelvis_tx	pelvis_ty	pelvis_tz	hip_flexion_r	hip_adduction_r	hip_rotation_r	knee_angle_r	knee_angle_r_beta	ankle_angle_r	subtalar_angle_r	mtp_angle_r	hip_flexion_l	hip_adduction_l	hip_rotation_l	knee_angle_l	knee_angle_l_beta	ankle_angle_l	subtalar_angle_l	mtp_angle_l	lumbar_extension	lumbar_bending	lumbar_rotation	arm_flex_r	arm_add_r	arm_rot_r	elbow_flex_r	pro_sup_r	wrist_flex_r	wrist_dev_r	arm_flex_l	arm_add_l	arm_rot_l	elbow_flex_l	pro_sup_l	wrist_flex_l	wrist_dev_l
     36.99500000	     -4.14752117	     -3.79217929	     -0.82702731	      0.91084965	      0.92519916	      0.46600014	     21.02705658	      0.14975303	    -12.19005553	     19.76891789	     19.76891789	      4.62989687	     -4.83044248	     -3.58150875	      4.32928017	     -8.18715735	     -8.11381000	     31.84360738	     31.84360738	     16.55700053	     -7.69640930	     -7.59912201	     -8.79968731	      3.99482249	      0.16939026	     -3.01946549	    -14.60026766	     -2.46718803	     42.29047703	     45.46987141	      0.00000000	      0.00000000	      7.61657420	    -11.95579753	    -12.01185583	     54.94490446	     46.78744500	      0.00000000	      0.00000000
     37.00800000	     -4.12033133	     -3.96334257	     -0.53125259	      0.91115251	      0.92565911	      0.46868660	     20.43498964	      0.44079188	    -12.52462673	     19.67370527	     19.67370527	      5.09594705	     -4.67185815	     -3.76356698	      6.07702784	     -8.86199879	     -7.14394153	     35.62180705	     35.62180705	     14.89722111	     -9.33752419	     -8.54917024	     -8.84089884	      4.19366378	     -0.02098812	     -1.43358817	    -14.76390269	     -2.61495198	     43.62040198	     45.43854557	      0.00000000	      0.00000000	      6.63796616	    -11.81781556	    -11.82294061	     53.21997905	     46.74340148	      0.00000000	      0.00000000
     37.02100000	     -4.05012249	     -4.01588100	     -0.27924348	      0.91127948	      0.92606257	      0.47119240	     19.84819143	      0.57594794	    -12.88486184	     19.65561877	     19.65561877	      5.52063899	     -4.37172840	     -4.09655500	      7.75744516	     -9.22409646	     -5.91832424	     39.08781199	     39.08781199	     11.40312341	    -12.45889245	    -12.41954906	     -8.90367078	      4.31818589	      0.52029745	     -0.88703041	    -15.37985375	     -2.28769394	     46.93473657	     45.31477520	      0.00000000	      0.00000000	      7.14541397	    -11.33309137	    -11.54065075	     48.67888134	     46.67653475	      0.00000000	      0.00000000
     37.03400000	     -4.03319812	     -4.25752076	      0.02549218	      0.91122162	      0.92619512	      0.47369933	     19.29311973	      0.94359154	    -13.23439197	     19.55511104	     19.55511104	      5.93583089	     -4.32378584	     -4.25445925	      9.87619050	     -9.90439959	     -4.84199679	     43.25258397	     43.25258397	      9.45690405	    -13.78785983	    -12.57243386	     -8.94917384	      4.58059087	      0.40203437	      0.79478131	    -15.61108287	     -2.55718365	     48.13877251	     45.29532562	      0.00000000	      0.00000000	      6.08879646	    -11.13240567	    -11.29360859	     47.44158447	     46.63008817	      0.00000000	      0.00000000
     37.04700000	     -3.90286630	     -4.47098531	      0.27232431	      0.91095617	      0.92638493	      0.47614152	     18.69143737	      1.28267090	    -13.50741077	     19.56372707	     19.56372707	      6.35180729	     -4.26214653	     -4.43611212	     11.91371889	    -10.45244341	     -3.71456550	     47.31513686	     47.31513686	      7.42053123	    -15.01363047	    -12.32442167	     -9.18156793	      4.80105834	      0.48577924	      2.59818483	    -15.91169340	     -2.74986874	     49.37299410	     45.27098368	      0.00000000	      0.00000000	      5.26888677	    -10.88975023	    -11.06961002	     46.17201278	     46.58776585	      0.00000000	      0.00000000
     37.06000000	     -3.98275361	     -4.53036471	      0.59193226	      0.91041024	      0.92625017	      0.47817903	     18.35666676	      1.39966806	    -13.82766834	     19.61237831	     19.61237831	      6.73056210	     -4.18285755	     -4.75832550	     14.34790634	    -10.55227307	     -2.22692138	     51.44193083	     51.44193083	      6.23745289	    -15.88661132	     -9.35973135	     -9.09336033	      4.91845823	      0.82052190	      3.22330779	    -16.66546461	     -2.30536300	     53.07536191	     45.14338393	      0.00000000	      0.00000000	      5.75237626	    -10.54722785	    -10.25897776	     41.39271458	     46.46888471	      0.00000000	      0.00000000
     37.07300000	     -3.90911791	     -4.77266675	      0.88381366	      0.90976636	      0.92626852	      0.48027073	     17.84083413	      1.75447364	    -14.08974019	     19.59837339	     19.59837339	      7.10950794	     -4.19848394	     -4.88187171	     16.51245734	    -10.91215469	     -0.99443875	     55.06622322	     55.06622322	      4.42906515	    -16.55119466	     -8.65451486	     -9.26402313	      5.16404359	      0.95463885	      5.06452769	    -17.00626665	     -2.60085306	     54.18686616	     45.12863758	      0.00000000	      0.00000000	      4.85298894	    -10.23184217	    -10.05490794	     40.44818356	     46.42872157	      0.00000000	      0.00000000
     37.08600000	     -3.96697331	     -4.81210744	      1.16957484	      0.90884822	      0.92620140	      0.48206286	     17.51619788	      1.86227520	    -14.32498637	     19.65481046	     19.65481046	      7.53654461	     -4.18346539	     -4.98954974	     18.98546693	    -10.77023567	      0.41675103	     58.78255650	     58.78255650	      5.02913793	    -16.03343589	     -2.31387327	     -9.29683987	      5.20471281	      1.12264150	      6.20686603	    -17.61572700	     -2.32790368	     57.27644540	     45.04419577	      0.00000000	      0.00000000	      4.90246629	     -9.98991255	     -9.22030842	     36.85737524	     46.31024628	      0.00000000	      0.00000000
     37.09900000	     -3.85460596	     -4.90935839	      1.40499626	      0.90789004	      0.92647709	      0.48383129	     16.94718758	      2.08085023	    -14.45606459	     19.56660353	     19.56660353	      7.90668758	     -4.17955966	     -5.07494527	     20.89781811	    -10.80822023	      1.42358197	     61.40313567	     61.40313567	      3.73376562	    -16.28479382	     -1.95269164	     -9.58315317	      5.24841206	      1.50904550	      8.14689084	    -18.09938646	     -2.65033114	     58.22313918	     45.03584533	      0.00000000	      0.00000000	      4.15912487	     -9.57736537	     -9.07145031	     36.24998737	     46.27879938	      0.00000000	      0.00000000
     37.11200000	     -3.92571991	     -5.04517823	      1.71272946	      0.90671660	      0.92660659	      0.48539240	     16.56043070	      2.31420945	    -14.73403862	     19.41177222	     19.41177222	      8.21128222	     -4.21458581	     -5.10819091	     23.00124622	    -10.74474070	      2.51956078	     63.55758574	     63.55758574	      2.88409941	    -16.44842572	     -1.29540998	     -9.64733063	      5.37884578	      1.47569595	     10.15548431	    -18.36159299	     -2.91027822	     59.58929602	     45.01096343	      0.00000000	      0.00000000	      3.20050964	     -9.28790113	     -8.87980291	     35.26442077	     46.23717557	      0.00000000	      0.00000000
     37.12500000	     -3.98435074	     -5.00018235	      2.07126433	      0.90550350	      0.92689017	      0.48665056	     16.14986918	      2.32964894	    -14.95664499	     19.26225005	     19.26225005	      8.57146352	     -4.16106232	     -5.01116382	     25.18086745	    -10.37503894	      3.51030658	     65.58191842	     65.58191842	      4.76552228	    -15.45478298	      5.07327865	     -9.71377235	      5.32929064	      1.42301321	     11.24163398	    -18.73200426	     -2.71371610	     63.18098513	     44.94776917	      0.00000000	      0.00000000	      3.08015250	     -9.11465681	     -7.84100434	     31.93068927	     46.09012110	      0.00000000	      0.00000000
     37.13800000	     -3.93912435	     -4.85437448	      2.28671878	      0.90423273	      0.92753230	      0.48798170	     15.58672765	      2.30129012	    -14.97277315	     19.01275083	     19.01275083	      8.85177702	     -4.12962599	     -5.02738870	     26.78387415	    -10.10593420	      3.95530014	     66.37206928	     66.37206928	      4.54154081	    -15.44936557	      5.01146912	     -9.95380542	      5.04940694	      1.97918733	     12.93957841	    -19.22082536	     -2.97258146	     63.93540998	     44.94125987	      0.00000000	      0.00000000	      2.43131774	     -8.72689059	     -7.75699681	     31.56447048	     46.06715580	      0.00000000	      0.00000000
     37.15100000	     -4.09527699	     -4.97591554	      2.67415848	      0.90281969	      0.92795757	      0.48901182	     15.11281281	      2.53187660	    -15.34142199	     18.48356858	     18.48356858	      9.02309661	     -4.04064874	     -4.96434793	     28.61408458	     -9.95902678	      4.60869858	     66.58671158	     66.58671158	      4.52754055	    -15.76323243	      5.25558646	     -9.94227206	      5.22629982	      1.46817638	     15.14685833	    -19.11036490	     -3.09429697	     65.97832857	     44.89077145	      0.00000000	      0.00000000	      1.33931812	     -8.51243453	     -7.55909981	     30.51348288	     46.02195691	      0.00000000	      0.00000000
     37.16400000	     -4.12652585	     -4.87612916	      2.99196472	      0.90143946	      0.92872643	      0.48998004	     14.48201477	      2.55578441	    -15.53393024	     17.93328194	     17.93328194	      9.19349025	     -3.91044783	     -4.91086980	     30.05488261	     -9.67965693	      4.87616326	     66.05852291	     66.05852291	      4.83187224	    -16.03339054	      5.57198732	    -10.13251554	      5.08367624	      1.21481769	     17.04266648	    -19.08876276	     -2.99198739	     68.11520708	     44.82971755	      0.00000000	      0.00000000	      0.43339192	     -8.30348669	     -7.36391085	     29.57813760	     45.97974556	      0.00000000	      0.00000000
     37.17700000	     -4.20101772	     -4.74695081	      3.28259974	      0.90002503	      0.92949034	      0.49083345	     13.88392848	      2.55134924	    -15.70007803	     17.34912335	     17.34912335	      9.30970071	     -3.78325284	     -4.86102027	     31.35610750	     -9.41699287	      4.92254767	     64.85227622	     64.85227622	      5.26738528	    -16.39988423	      5.91488818	    -10.28438392	      4.90856239	      1.21055262	     18.77641556	    -19.27835206	     -2.86590148	     70.19831076	     44.77061412	      0.00000000	      0.00000000	     -0.35090637	     -8.04218326	     -7.19204180	     28.87158494	     45.94214635	      0.00000000	      0.00000000
     37.19000000	     -4.41230314	     -4.60167824	      3.51079120	      0.89849032	      0.92995019	      0.49163195	     13.55609832	      2.50017904	    -15.78135918	     16.98630532	     16.98630532	      9.46285701	     -3.77948370	     -4.84030785	     32.63836090	     -9.26946479	      4.66355266	     63.04674353	     63.04674353	      5.80884294	    -16.55078774	      6.04564934	    -10.25684808	      4.68059133	      1.68726321	     20.46729722	    -19.75512592	     -3.06480908	     71.22520024	     44.75338474	      0.00000000	      0.00000000	     -0.99226225	     -7.69695605	     -7.12205516	     28.58084367	     45.92003320	      0.00000000	      0.00000000
     37.20300000	     -4.43086712	     -4.45942450	      3.86924596	      0.89719585	      0.93081181	      0.49213436	     12.73736328	      2.51561394	    -15.90640035	     16.11675821	     16.11675821	      9.54411785	     -3.57458241	     -4.78708077	     33.45654586	     -8.90411583	      4.63235812	     60.54726606	     60.54726606	      6.29655030	    -17.23151235	      6.62814568	    -10.52746140	      4.54861744	      1.25363639	     22.16933782	    -19.50800946	     -2.78683045	     74.24538331	     44.66050647	      0.00000000	      0.00000000	     -1.94974725	     -7.52752808	     -6.96887349	     27.98185253	     45.88148696	      0.00000000	      0.00000000
